<?xml version="1.0" encoding="utf-8"?>
<!-- Generator: Adobe Illustrator 20.1.0, SVG Export Plug-In . SVG Version: 6.00 Build 0)  -->
<svg version="1.1" id="Layer_1" xmlns="http://www.w3.org/2000/svg" xmlns:xlink="http://www.w3.org/1999/xlink" x="0px" y="0px"
	 viewBox="0 0 50 50" style="enable-background:new 0 0 50 50;" xml:space="preserve">
<style type="text/css">
	.st0{fill:#FCFAFA;}
</style>
<path class="st0" d="M28.8,19.8c-0.2,0.5,0,1.1,0.4,1.5l0,0c0.4,0.4,1,0.5,1.5,0.4l16.7-5.5c0.6-0.2,1-0.8,1-1.4
	c0-0.4-0.2-0.8-0.4-1s-0.4-0.3-0.6-0.4L39.6,11l-2.4-7.8C37.1,3,37,2.8,36.8,2.6c-0.3-0.3-0.6-0.4-1-0.4c-0.6,0-1.2,0.4-1.4,1
	L28.8,19.8z"/>
<path class="st0" d="M21.2,28.6c0.2-0.5,0-1.1-0.4-1.5l0,0c-0.4-0.4-1-0.5-1.5-0.4L2.6,32.2c-0.6,0.2-1,0.8-1,1.4
	c0,0.4,0.2,0.8,0.4,1C2.2,34.8,2.4,35,2.6,35l7.8,2.4l2.4,7.8c0.1,0.2,0.2,0.4,0.4,0.6c0.3,0.3,0.6,0.4,1,0.4c0.6,0,1.2-0.4,1.4-1
	L21.2,28.6z"/>
</svg>
