<?xml version="1.0" encoding="utf-8"?>
<!-- Generator: Adobe Illustrator 20.1.0, SVG Export Plug-In . SVG Version: 6.00 Build 0)  -->
<svg version="1.1" id="Layer_1" xmlns="http://www.w3.org/2000/svg" xmlns:xlink="http://www.w3.org/1999/xlink" x="0px" y="0px"
	 viewBox="0 0 50 50" style="enable-background:new 0 0 50 50;" xml:space="preserve">
<style type="text/css">
	.st0{fill:#FFFFFF;}
</style>
<path class="st0" d="M45.8,5.6c0.2-0.5-0.1-1.1-0.5-1.5l0,0c-0.4-0.4-1-0.4-1.5-0.3l-16.3,6.5c-0.6,0.2-1,0.9-0.9,1.5
	c0,0.4,0.2,0.8,0.5,1c0.2,0.2,0.4,0.3,0.6,0.4l7.9,1.9l2.9,7.6c0.1,0.2,0.2,0.4,0.4,0.6c0.3,0.3,0.6,0.4,1,0.3
	c0.6,0,1.2-0.5,1.3-1.1L45.8,5.6z"/>
<path class="st0" d="M2.5,43.1c-0.2,0.5,0,1.1,0.4,1.5l0,0c0.4,0.4,1,0.5,1.5,0.4l16.8-5.2c0.6-0.2,1-0.8,1-1.4c0-0.4-0.2-0.8-0.4-1
	c-0.2-0.2-0.4-0.4-0.6-0.4l-7.7-2.6l-2.2-7.8c-0.1-0.2-0.2-0.4-0.4-0.6c-0.3-0.3-0.6-0.4-1-0.4c-0.6,0-1.2,0.4-1.4,1L2.5,43.1z"/>
</svg>
